<svg id="Layer_1" data-name="Layer 1" xmlns="http://www.w3.org/2000/svg" viewBox="0 0 803.47 175.82"><defs><style>.cls-1,.cls-3{fill:#0f4b91;}.cls-2{fill:#e91e76;}.cls-3,.cls-4{fill-rule:evenodd;}.cls-4{fill:#96c93f;}</style></defs><title>aerlux-bilete-online</title><path class="cls-1" d="M795.7,49.7a2.1,2.1,0,0,0-2-1.31H768.09a2.11,2.11,0,0,0-1.53.66l-18,19-9.8-18.52A2.08,2.08,0,0,0,737,48.39H713a2.1,2.1,0,0,0-1.82,3.15L730,84.32,695,118.4a2.06,2.06,0,0,0-.48,2.29,2.09,2.09,0,0,0,1.94,1.31h25.67a2.1,2.1,0,0,0,1.51-.64l18.63-19.17,9.9,18.69a2.11,2.11,0,0,0,1.86,1.12h24a2.11,2.11,0,0,0,1.82-3.15L760.73,85.58,795.21,52a2.12,2.12,0,0,0,.49-2.3Z" transform="translate(-19 -21.54)"/><path class="cls-1" d="M361.37,89.44l-2.55,11.06a33.82,33.82,0,0,1-6,3.16A17.81,17.81,0,0,1,346.5,105c-3,0-5.27-.4-6.72-1.2-.73-.4-1.57-1.12-1.57-3.18a8,8,0,0,1,1.54-5.23,10.69,10.69,0,0,1,4.85-3.18,42.4,42.4,0,0,1,8.51-1.86c2.42-.33,5.14-.63,8.26-.92Zm22.2-38.54c-5.44-3-13.61-4.53-25-4.53A111.89,111.89,0,0,0,342,47.61c-5.36.82-9.49,1.58-12.26,2.28a2.1,2.1,0,0,0-1.55,1.63l-3.27,16.42a2.06,2.06,0,0,0,.43,1.74,2.08,2.08,0,0,0,1.62.77H329a2.24,2.24,0,0,0,.73-.13c2.2-.82,5.51-1.84,9.83-3a43.16,43.16,0,0,1,11.57-1.78c5.1,0,8.91.54,11.35,1.6a4.15,4.15,0,0,1,2.82,4.22,6.28,6.28,0,0,1-.09,1.1c-7,.44-13.74,1.13-20.07,2a66.93,66.93,0,0,0-17.65,4.8,28.7,28.7,0,0,0-12.43,9.87,26.43,26.43,0,0,0-4.26,15.15,18.27,18.27,0,0,0,6.2,14.24c4,3.57,9.3,5.38,15.59,5.38a39.55,39.55,0,0,0,8.95-.81,50,50,0,0,0,6.86-2.28,41.29,41.29,0,0,0,5.79-3.19l.78-.5-.53,2.31a2.12,2.12,0,0,0,.4,1.78,2.1,2.1,0,0,0,1.64.79h22a2.11,2.11,0,0,0,2-1.63l10.83-47.19a27.54,27.54,0,0,0,.65-3.76,31.38,31.38,0,0,0,.22-3.46c0-6.76-2.93-11.82-8.72-15.06Z" transform="translate(-19 -21.54)"/><path class="cls-1" d="M697,49.19a2.07,2.07,0,0,0-1.64-.8H672.9a2.1,2.1,0,0,0-2,1.63L659.67,98.23a45.29,45.29,0,0,1-6.49,2.79,18.58,18.58,0,0,1-5.59,1.08c-4.06,0-5.52-.8-6-1.27-.87-.79-1.31-2.26-1.31-4.37a31.87,31.87,0,0,1,.43-4.46c.32-1.83.77-4.07,1.4-6.64L650.16,51a2.11,2.11,0,0,0-2-2.58h-22.6a2.11,2.11,0,0,0-2,1.63L613,95.18a42.63,42.63,0,0,0-.84,4.63,35.25,35.25,0,0,0-.27,4.62c0,6.37,2,11.28,6,14.59s9.17,4.88,15.75,4.88a35,35,0,0,0,6.22-.56,34,34,0,0,0,6.93-2.1,43.15,43.15,0,0,0,6.34-3.15c.73-.44,1.47-.89,2.22-1.36l-.62,2.69a2.1,2.1,0,0,0,2,2.58h22.42a2.11,2.11,0,0,0,2-1.63L697.37,51a2.11,2.11,0,0,0-.41-1.78Z" transform="translate(-19 -21.54)"/><path class="cls-1" d="M606.23,21.54H583.82a2.11,2.11,0,0,0-2.05,1.63l-22.25,96.26a2.11,2.11,0,0,0,2.05,2.57H584a2.12,2.12,0,0,0,2-1.63l22.27-96.26a2.11,2.11,0,0,0-.41-1.78,2.08,2.08,0,0,0-1.64-.79Z" transform="translate(-19 -21.54)"/><path class="cls-1" d="M433.31,74.23a19.35,19.35,0,0,1,5.26-6.6,16.23,16.23,0,0,1,10.33-3.26c3.3,0,5.79.7,7.43,2.1s2.32,3.25,2.32,5.89a16,16,0,0,1-.08,1.72s0,.1,0,.15ZM476.2,53c-5.63-4.48-14-6.75-24.76-6.75a52.77,52.77,0,0,0-19.55,3.55,42.66,42.66,0,0,0-24.52,24.3,48.69,48.69,0,0,0-3.31,18.16c0,9.84,3.51,17.69,10.44,23.33s16.5,8.32,28.79,8.32A79.81,79.81,0,0,0,459,122.4,69.55,69.55,0,0,0,473.13,118a2.09,2.09,0,0,0,1.21-1.44l4.15-17.92a2.11,2.11,0,0,0-2-2.58H474a2.1,2.1,0,0,0-1.12.33,62.21,62.21,0,0,1-11,5.32A37.33,37.33,0,0,1,448.65,104c-6.49,0-11.3-1.21-14.3-3.59a11.32,11.32,0,0,1-4.3-8.93h49.69a2.09,2.09,0,0,0,2-1.42A66,66,0,0,0,484,81.83a41.73,41.73,0,0,0,.89-8.67c0-8.81-2.92-15.59-8.68-20.17Z" transform="translate(-19 -21.54)"/><path class="cls-1" d="M561.63,49.28a2.12,2.12,0,0,0-1.47-.87c-.78-.09-1.7-.16-2.7-.2s-1.93-.07-2.73-.07a31.81,31.81,0,0,0-13.51,3.11,71.63,71.63,0,0,0-8.44,4.66L533.93,51a2.14,2.14,0,0,0-.4-1.78,2.08,2.08,0,0,0-1.65-.8H509.49a2.09,2.09,0,0,0-2,1.63l-16.07,69.4a2.13,2.13,0,0,0,.4,1.79,2.1,2.1,0,0,0,1.64.79h22.4a2.12,2.12,0,0,0,2-1.63l10.47-45.25a49,49,0,0,1,7-1.64,52.68,52.68,0,0,1,13.3-.38,16.22,16.22,0,0,1,3.7.65,2.09,2.09,0,0,0,.69.12h2a2.1,2.1,0,0,0,2-1.63L562,51a2.07,2.07,0,0,0-.33-1.69Z" transform="translate(-19 -21.54)"/><path class="cls-1" d="M322.31,145.45l-.49,2.16H316.2l-1.71,7.46a11.46,11.46,0,0,0-.26,1.3,7.67,7.67,0,0,0-.12,1.17,2.09,2.09,0,0,0,.54,1.57,2.86,2.86,0,0,0,2,.51,5.72,5.72,0,0,0,1.4-.21,8.34,8.34,0,0,0,1.1-.32h.15l-.51,2.35c-.54.13-1.11.24-1.72.33a11.2,11.2,0,0,1-1.63.13,4.74,4.74,0,0,1-3.07-.88,3.33,3.33,0,0,1-1.09-2.77,7.11,7.11,0,0,1,.06-.92c.05-.3.11-.65.18-1l2-8.69h-1.83l.49-2.16H314l1.07-4.65h2.7l-1.07,4.65Z" transform="translate(-19 -21.54)"/><path class="cls-1" d="M338.93,145.45l-3.7,16.12h-2.71l.41-1.78a19.09,19.09,0,0,1-2.88,1.64,7,7,0,0,1-2.82.59A4.69,4.69,0,0,1,324,161a3.91,3.91,0,0,1-1.16-3.05,7.34,7.34,0,0,1,.06-.95c0-.31.1-.66.18-1.06l2.4-10.46h2.71l-2.1,9.18c-.09.37-.17.8-.25,1.28a8.52,8.52,0,0,0-.11,1.14,2.53,2.53,0,0,0,.62,1.86,3,3,0,0,0,2.14.62,5.93,5.93,0,0,0,2.44-.62,16.45,16.45,0,0,0,2.55-1.42l2.75-12Z" transform="translate(-19 -21.54)"/><path class="cls-1" d="M353.61,148.29h-.15a9.88,9.88,0,0,0-1.07-.2,8.49,8.49,0,0,0-1.21-.07,6.4,6.4,0,0,0-2.7.62,15.45,15.45,0,0,0-2.57,1.49l-2.61,11.44h-2.74l3.67-16.12H347l-.54,2.38A16.63,16.63,0,0,1,349.7,146a7,7,0,0,1,2.57-.52c.48,0,.82,0,1,0l.92.14-.62,2.67Z" transform="translate(-19 -21.54)"/><path class="cls-1" d="M361.15,140l-.65,2.81h-3.08l.65-2.81Zm-1.5,5.5-3.73,16.12h-2.7L357,145.45Z" transform="translate(-19 -21.54)"/><path class="cls-1" d="M366.36,162a10.75,10.75,0,0,1-3.24-.45,13.3,13.3,0,0,1-2.37-1l.6-2.9h.15c.2.18.46.38.79.63a8.22,8.22,0,0,0,1.23.71,9.09,9.09,0,0,0,1.56.58,7,7,0,0,0,1.87.24,5.74,5.74,0,0,0,3.2-.76,2.53,2.53,0,0,0,1.16-2.24,1.34,1.34,0,0,0-.6-1.18A5.21,5.21,0,0,0,369,155l-1.36-.29c-.53-.11-1.06-.23-1.6-.37a5.21,5.21,0,0,1-2.51-1.38,3.21,3.21,0,0,1-.81-2.21,4.64,4.64,0,0,1,.49-2.11,5.69,5.69,0,0,1,1.46-1.8,7,7,0,0,1,2.36-1.27,9.92,9.92,0,0,1,3.18-.48,11.37,11.37,0,0,1,2.88.36,8.89,8.89,0,0,1,2.35.89l-.58,2.77h-.14c-.16-.13-.39-.3-.7-.51a7.92,7.92,0,0,0-1.19-.66,8.59,8.59,0,0,0-1.46-.49,7,7,0,0,0-1.72-.2,5,5,0,0,0-2.93.77,2.39,2.39,0,0,0-1.13,2.1,1.52,1.52,0,0,0,.55,1.2,3.93,3.93,0,0,0,1.68.76c.47.12,1,.23,1.48.32l1.5.33a5.14,5.14,0,0,1,2.52,1.3,3.06,3.06,0,0,1,.85,2.22,4.89,4.89,0,0,1-.53,2.17,5.34,5.34,0,0,1-1.52,1.84,7.72,7.72,0,0,1-2.49,1.29,10.79,10.79,0,0,1-3.28.46Z" transform="translate(-19 -21.54)"/><path class="cls-1" d="M403,149a7.25,7.25,0,0,1-.07,1,8.19,8.19,0,0,1-.2,1.08l-2.42,10.46h-2.7l2.12-9.17c.11-.51.2-1,.28-1.42a7.55,7.55,0,0,0,.11-1.21,2.39,2.39,0,0,0-.56-1.69,2.85,2.85,0,0,0-2.1-.59,5.37,5.37,0,0,0-2.42.64,23.83,23.83,0,0,0-2.54,1.48c0,.24-.05.52-.09.83a7.59,7.59,0,0,1-.15.82l-2.38,10.31h-2.7l2.11-9.17c.13-.6.23-1.09.31-1.47a6.42,6.42,0,0,0,.11-1.16A2,2,0,0,0,389,148a3.49,3.49,0,0,0-2-.48,5.21,5.21,0,0,0-1.93.44,17.68,17.68,0,0,0-2.85,1.62l-2.79,12h-2.71l3.73-16.12h2.71l-.41,1.8a17.66,17.66,0,0,1,2.81-1.65,6.34,6.34,0,0,1,2.72-.59,4.63,4.63,0,0,1,2.65.69,3.3,3.3,0,0,1,1.35,1.92,16.63,16.63,0,0,1,3.43-2,7.87,7.87,0,0,1,3-.61,4.41,4.41,0,0,1,3.2,1.05,4,4,0,0,1,1.07,3Z" transform="translate(-19 -21.54)"/><path class="cls-1" d="M407.61,161l-2.53,4.47H403l1.44-4.47Z" transform="translate(-19 -21.54)"/><path class="cls-1" d="M434.19,150.55a13.73,13.73,0,0,1-.74,4.49,12,12,0,0,1-2,3.65,9.9,9.9,0,0,1-2.88,2.46,7.19,7.19,0,0,1-3.51.87,8.12,8.12,0,0,1-2.41-.34,7.68,7.68,0,0,1-2-.9l-.36.79H417.8l5.2-22.48h2.7l-1.86,8.06a16.9,16.9,0,0,1,2.63-1.54,6.69,6.69,0,0,1,2.86-.6,4.48,4.48,0,0,1,3.61,1.46,6.09,6.09,0,0,1,1.25,4.08ZM429.75,157a9.8,9.8,0,0,0,1.22-2.76,11.79,11.79,0,0,0,.41-3.2,4.06,4.06,0,0,0-.76-2.65,2.91,2.91,0,0,0-2.41-.93,6,6,0,0,0-2.49.59,19.21,19.21,0,0,0-2.41,1.34l-2.13,9.22a11,11,0,0,0,1.81.77,7.12,7.12,0,0,0,2.09.27,5.1,5.1,0,0,0,2.7-.73,6.44,6.44,0,0,0,2-1.92Z" transform="translate(-19 -21.54)"/><path class="cls-1" d="M444.19,140l-.65,2.81h-3.08l.65-2.81Zm-1.5,5.5L439,161.57h-2.7L440,145.45Z" transform="translate(-19 -21.54)"/><polygon class="cls-1" points="433.28 117.55 428.08 140.03 425.38 140.03 430.57 117.55 433.28 117.55 433.28 117.55"/><path class="cls-1" d="M465.59,151.78c0-.28.08-.51.1-.7a6.4,6.4,0,0,0,0-.64,3.32,3.32,0,0,0-.85-2.41,3.7,3.7,0,0,0-2.73-.86,5.77,5.77,0,0,0-3.67,1.26,6.28,6.28,0,0,0-2.17,3.35ZM460.11,162a8,8,0,0,1-5.26-1.57,5.62,5.62,0,0,1-1.91-4.61,11.06,11.06,0,0,1,2.8-7.6,8.87,8.87,0,0,1,6.94-3.17,5.92,5.92,0,0,1,4.21,1.36,5,5,0,0,1,1.46,3.84,12.16,12.16,0,0,1-.12,1.37c-.09.63-.22,1.36-.4,2.18H455.91c-.06.28-.1.56-.13.82s0,.53,0,.75a4.1,4.1,0,0,0,1.25,3.19,5,5,0,0,0,3.54,1.16,9.81,9.81,0,0,0,3.28-.61,13.66,13.66,0,0,0,2.84-1.4h.15l-.59,2.93-1.3.48a13.39,13.39,0,0,1-1.48.43c-.6.14-1.13.26-1.59.34a11.81,11.81,0,0,1-1.74.11Z" transform="translate(-19 -21.54)"/><path class="cls-1" d="M482.22,145.45l-.49,2.16H476.1l-1.71,7.46c-.1.38-.18.81-.26,1.3a8.89,8.89,0,0,0-.11,1.17,2.13,2.13,0,0,0,.53,1.57,2.88,2.88,0,0,0,2,.51,5.73,5.73,0,0,0,1.41-.21,8.34,8.34,0,0,0,1.1-.32h.14l-.5,2.35c-.54.13-1.12.24-1.73.33a11.18,11.18,0,0,1-1.62.13,4.77,4.77,0,0,1-3.08-.88,3.36,3.36,0,0,1-1.09-2.77,5.7,5.7,0,0,1,.07-.92c0-.3.1-.65.18-1l2-8.69h-1.84l.5-2.16h1.83L475,140.8h2.7l-1.07,4.65Z" transform="translate(-19 -21.54)"/><path class="cls-1" d="M494.87,151.78c.05-.28.08-.51.1-.7a6.4,6.4,0,0,0,0-.64,3.32,3.32,0,0,0-.85-2.41,3.7,3.7,0,0,0-2.73-.86,5.77,5.77,0,0,0-3.67,1.26,6.28,6.28,0,0,0-2.17,3.35ZM489.39,162a8,8,0,0,1-5.26-1.57,5.62,5.62,0,0,1-1.91-4.61,11.1,11.1,0,0,1,2.8-7.6A8.89,8.89,0,0,1,492,145a5.92,5.92,0,0,1,4.21,1.36,5,5,0,0,1,1.46,3.84,12.16,12.16,0,0,1-.12,1.37c-.08.63-.22,1.36-.4,2.18H485.19c-.06.28-.1.56-.13.82s0,.53,0,.75a4.1,4.1,0,0,0,1.25,3.19,5,5,0,0,0,3.54,1.16,9.81,9.81,0,0,0,3.28-.61,13.42,13.42,0,0,0,2.84-1.4h.15l-.59,2.93-1.3.48a13.39,13.39,0,0,1-1.48.43c-.59.14-1.13.26-1.59.34a11.81,11.81,0,0,1-1.74.11Z" transform="translate(-19 -21.54)"/><polygon class="cls-1" points="537.88 131.93 528.87 131.93 529.48 129.32 538.49 129.32 537.88 131.93 537.88 131.93"/><path class="cls-1" d="M525.66,151.16a13.12,13.12,0,0,1-.67,4.15,10.69,10.69,0,0,1-1.88,3.46,9.31,9.31,0,0,1-2.91,2.39,8.25,8.25,0,0,1-3.85.86,6.05,6.05,0,0,1-4.5-1.64,6.19,6.19,0,0,1-1.61-4.53,12.84,12.84,0,0,1,.66-4.12,10.86,10.86,0,0,1,1.91-3.49,8.94,8.94,0,0,1,2.94-2.36,8.4,8.4,0,0,1,3.81-.87,6.15,6.15,0,0,1,4.45,1.58,6.09,6.09,0,0,1,1.65,4.57Zm-4.43,6.08a8.57,8.57,0,0,0,1.2-2.67,11.89,11.89,0,0,0,.42-3.2,4.3,4.3,0,0,0-1-3.05,3.58,3.58,0,0,0-2.74-1,4.87,4.87,0,0,0-2.52.67,6.25,6.25,0,0,0-1.93,1.84,8.89,8.89,0,0,0-1.21,2.66,11.94,11.94,0,0,0-.42,3.17,4.44,4.44,0,0,0,1,3.06,3.55,3.55,0,0,0,2.76,1.06,5,5,0,0,0,2.53-.66,5.9,5.9,0,0,0,1.92-1.84Z" transform="translate(-19 -21.54)"/><path class="cls-1" d="M543.91,149.13c0,.24,0,.55-.06.94a10.06,10.06,0,0,1-.18,1l-2.42,10.46h-2.68l2.09-9.17c.11-.51.2-1,.26-1.34a7.08,7.08,0,0,0,.09-1.13,2.52,2.52,0,0,0-.6-1.83,3,3,0,0,0-2.17-.61,5.87,5.87,0,0,0-2.43.61,18.48,18.48,0,0,0-2.59,1.45l-2.78,12h-2.71l3.73-16.12h2.71l-.42,1.8a16.63,16.63,0,0,1,2.91-1.67,7.09,7.09,0,0,1,2.78-.57,4.73,4.73,0,0,1,3.29,1.06,3.9,3.9,0,0,1,1.18,3.06Z" transform="translate(-19 -21.54)"/><polygon class="cls-1" points="548.82 117.55 543.62 140.03 540.92 140.03 546.12 117.55 548.82 117.55 548.82 117.55"/><path class="cls-1" d="M576,140l-.65,2.81h-3.07l.65-2.81Zm-1.49,5.5-3.73,16.12H568l3.72-16.12Z" transform="translate(-19 -21.54)"/><path class="cls-1" d="M592.31,149.13a7.54,7.54,0,0,1-.07.94,6.56,6.56,0,0,1-.18,1l-2.42,10.46H587l2.08-9.17c.11-.51.2-1,.26-1.34a7.08,7.08,0,0,0,.1-1.13,2.52,2.52,0,0,0-.61-1.83,3,3,0,0,0-2.16-.61,5.87,5.87,0,0,0-2.44.61,18.38,18.38,0,0,0-2.58,1.45l-2.79,12h-2.71l3.73-16.12h2.71l-.41,1.8a16.23,16.23,0,0,1,2.9-1.67,7.09,7.09,0,0,1,2.78-.57,4.76,4.76,0,0,1,3.3,1.06,3.93,3.93,0,0,1,1.18,3.06Z" transform="translate(-19 -21.54)"/><path class="cls-1" d="M608,151.78c0-.28.08-.51.1-.7a6.4,6.4,0,0,0,0-.64,3.32,3.32,0,0,0-.85-2.41,3.7,3.7,0,0,0-2.73-.86,5.77,5.77,0,0,0-3.67,1.26,6.28,6.28,0,0,0-2.17,3.35ZM602.49,162a8,8,0,0,1-5.26-1.57,5.65,5.65,0,0,1-1.91-4.61,11.1,11.1,0,0,1,2.8-7.6,8.89,8.89,0,0,1,6.94-3.17,5.92,5.92,0,0,1,4.21,1.36,5,5,0,0,1,1.46,3.84,12.16,12.16,0,0,1-.12,1.37c-.08.63-.22,1.36-.4,2.18H598.29c-.06.28-.1.56-.13.82s0,.53,0,.75a4.1,4.1,0,0,0,1.25,3.19,5,5,0,0,0,3.54,1.16,9.81,9.81,0,0,0,3.28-.61,13.42,13.42,0,0,0,2.84-1.4h.16l-.6,2.93-1.3.48a13.39,13.39,0,0,1-1.48.43c-.59.14-1.13.26-1.59.34a11.81,11.81,0,0,1-1.74.11Z" transform="translate(-19 -21.54)"/><path class="cls-1" d="M323.23,178h-.15a6.62,6.62,0,0,0-1.07-.2,8.49,8.49,0,0,0-1.21-.07,6.39,6.39,0,0,0-2.7.61,15.75,15.75,0,0,0-2.57,1.49l-2.61,11.45h-2.74l3.67-16.12h2.74l-.54,2.37a17,17,0,0,1,3.27-1.85,7,7,0,0,1,2.57-.52c.48,0,.82,0,1,0l.93.14-.62,2.67Z" transform="translate(-19 -21.54)"/><path class="cls-1" d="M334.61,182.75a37.43,37.43,0,0,0-3.94.34,11.75,11.75,0,0,0-2.85.73,4,4,0,0,0-1.77,1.28,3.35,3.35,0,0,0-.61,2,1.88,1.88,0,0,0,.71,1.58,3.53,3.53,0,0,0,2.19.55,6.75,6.75,0,0,0,2.68-.58,14.32,14.32,0,0,0,2.55-1.41l1-4.52Zm-1.55,6.77c-.26.15-.62.38-1.06.66a11.3,11.3,0,0,1-1.37.73,9.67,9.67,0,0,1-1.65.55,8.67,8.67,0,0,1-2.09.23,4.42,4.42,0,0,1-3.12-1.12,3.82,3.82,0,0,1-1.2-2.93,5.92,5.92,0,0,1,.85-3.24,6.07,6.07,0,0,1,2.5-2.16,13.58,13.58,0,0,1,3.93-1.2,42.9,42.9,0,0,1,5.25-.45c.06-.27.12-.51.16-.7a2.56,2.56,0,0,0,.07-.62,2.14,2.14,0,0,0-.28-1.14,1.88,1.88,0,0,0-.78-.69,3.48,3.48,0,0,0-1.18-.36,9.66,9.66,0,0,0-1.48-.1,11,11,0,0,0-2.81.41,21.61,21.61,0,0,0-2.56.8h-.14l.53-2.72c.55-.15,1.35-.31,2.41-.49a18.32,18.32,0,0,1,3.06-.28,8.67,8.67,0,0,1,4.5.94,3.27,3.27,0,0,1,1.51,3,4.89,4.89,0,0,1-.07.83c0,.3-.09.57-.15.84l-2.54,11h-2.69l.4-1.72Z" transform="translate(-19 -21.54)"/><path class="cls-1" d="M357,180.22a13.32,13.32,0,0,1-.74,4.5,11.29,11.29,0,0,1-2,3.58,9.49,9.49,0,0,1-2.88,2.39,7.31,7.31,0,0,1-3.51.88,9,9,0,0,1-2.39-.3,7.33,7.33,0,0,1-2-.86l-1.57,6.78h-2.71l5.1-22.07H347l-.39,1.69a17.05,17.05,0,0,1,2.65-1.54,6.73,6.73,0,0,1,2.87-.6,4.44,4.44,0,0,1,3.58,1.46,6.16,6.16,0,0,1,1.23,4.09Zm-2.81.52a4.12,4.12,0,0,0-.75-2.65,2.9,2.9,0,0,0-2.4-.93,6,6,0,0,0-2.49.59,17.3,17.3,0,0,0-2.4,1.34L344,188.23a8.87,8.87,0,0,0,1.8.75,7.33,7.33,0,0,0,2.07.25,5.1,5.1,0,0,0,2.68-.72,6.24,6.24,0,0,0,2-1.88,9,9,0,0,0,1.23-2.7,12.07,12.07,0,0,0,.4-3.19Z" transform="translate(-19 -21.54)"/><path class="cls-1" d="M367,169.61l-.65,2.82h-3.07l.65-2.82Zm-1.49,5.51-3.73,16.12H359l3.73-16.12Z" transform="translate(-19 -21.54)"/><path class="cls-1" d="M385.43,168.76l-5.2,22.48h-2.71l.39-1.69a16,16,0,0,1-3,1.7,6.68,6.68,0,0,1-2.43.44,4.71,4.71,0,0,1-3.62-1.45,6,6,0,0,1-1.33-4.2,13.3,13.3,0,0,1,.72-4.39,12.16,12.16,0,0,1,2-3.63,9.27,9.27,0,0,1,2.9-2.44,7.3,7.3,0,0,1,3.55-.91,9.67,9.67,0,0,1,2.36.28,7.45,7.45,0,0,1,2,.82l1.62-7ZM380.58,178a9.41,9.41,0,0,0-1.9-.74,8.06,8.06,0,0,0-2-.24,4.94,4.94,0,0,0-2.68.73,6.31,6.31,0,0,0-2,2,8.85,8.85,0,0,0-1.18,2.75,12.26,12.26,0,0,0-.41,3.11,4.18,4.18,0,0,0,.76,2.7,3,3,0,0,0,2.47.93,5.69,5.69,0,0,0,2.48-.61,16.84,16.84,0,0,0,2.33-1.33l2.15-9.27Z" transform="translate(-19 -21.54)"/><path class="cls-1" d="M419.34,169.61l-.65,2.82h-3.08l.65-2.82Zm-1.5,5.51-3.73,16.12h-2.7l3.73-16.12Z" transform="translate(-19 -21.54)"/><path class="cls-1" d="M441.69,182.75a37.43,37.43,0,0,0-3.94.34,11.75,11.75,0,0,0-2.85.73,4,4,0,0,0-1.77,1.28,3.34,3.34,0,0,0-.6,2,1.87,1.87,0,0,0,.7,1.58,3.58,3.58,0,0,0,2.2.55,6.75,6.75,0,0,0,2.68-.58,13.9,13.9,0,0,0,2.54-1.41l1-4.52Zm-1.55,6.77c-.26.15-.61.38-1.06.66a12,12,0,0,1-1.36.73,10.29,10.29,0,0,1-1.65.55,8.73,8.73,0,0,1-2.09.23,4.4,4.4,0,0,1-3.12-1.12,3.82,3.82,0,0,1-1.2-2.93,5.92,5.92,0,0,1,.84-3.24,6.11,6.11,0,0,1,2.51-2.16,13.39,13.39,0,0,1,3.93-1.2,42.55,42.55,0,0,1,5.24-.45c.07-.27.12-.51.17-.7a3.18,3.18,0,0,0,.06-.62,2,2,0,0,0-.28-1.14,1.88,1.88,0,0,0-.78-.69,3.49,3.49,0,0,0-1.17-.36,9.79,9.79,0,0,0-1.49-.1,10.94,10.94,0,0,0-2.8.41,21.85,21.85,0,0,0-2.57.8h-.14l.53-2.72c.55-.15,1.36-.31,2.42-.49a18.21,18.21,0,0,1,3.05-.28,8.71,8.71,0,0,1,4.51.94,3.26,3.26,0,0,1,1.5,3,6.12,6.12,0,0,1-.06.83c-.05.3-.1.57-.16.84l-2.54,11h-2.68l.39-1.72Z" transform="translate(-19 -21.54)"/><polygon class="cls-1" points="446.15 153.57 435.9 169.7 433.19 169.7 430.44 153.57 433.2 153.57 435.24 166.45 443.17 153.57 446.15 153.57 446.15 153.57"/><path class="cls-1" d="M476.94,182.75a37.67,37.67,0,0,0-3.94.34,11.66,11.66,0,0,0-2.84.73,4,4,0,0,0-1.77,1.28,3.28,3.28,0,0,0-.61,2,1.88,1.88,0,0,0,.71,1.58,3.53,3.53,0,0,0,2.19.55,6.75,6.75,0,0,0,2.68-.58,14.32,14.32,0,0,0,2.55-1.41l1-4.52Zm-1.55,6.77c-.26.15-.61.38-1.06.66a11.18,11.18,0,0,1-1.36.73,10,10,0,0,1-1.65.55,8.73,8.73,0,0,1-2.09.23,4.42,4.42,0,0,1-3.12-1.12,3.82,3.82,0,0,1-1.2-2.93,5.92,5.92,0,0,1,.84-3.24,6.17,6.17,0,0,1,2.51-2.16,13.48,13.48,0,0,1,3.93-1.2,42.55,42.55,0,0,1,5.25-.45c.06-.27.11-.51.16-.7a3.18,3.18,0,0,0,.06-.62,2.14,2.14,0,0,0-.27-1.14,2,2,0,0,0-.78-.69,3.48,3.48,0,0,0-1.18-.36,9.79,9.79,0,0,0-1.49-.1,11,11,0,0,0-2.8.41,21.85,21.85,0,0,0-2.57.8h-.14l.53-2.72c.56-.15,1.36-.31,2.42-.49a18.3,18.3,0,0,1,3.05-.28,8.71,8.71,0,0,1,4.51.94,3.26,3.26,0,0,1,1.5,3,6.12,6.12,0,0,1-.06.83c-.05.3-.09.57-.15.84l-2.55,11H475l.39-1.72Z" transform="translate(-19 -21.54)"/><path class="cls-1" d="M499.1,178.8c0,.23,0,.54-.06.94a8.25,8.25,0,0,1-.18,1l-2.42,10.46h-2.68l2.09-9.17c.11-.52.2-1,.26-1.34a7.27,7.27,0,0,0,.09-1.13,2.52,2.52,0,0,0-.6-1.83,3,3,0,0,0-2.17-.61,5.87,5.87,0,0,0-2.43.61,18,18,0,0,0-2.59,1.45l-2.78,12h-2.71l3.73-16.12h2.71l-.41,1.79a16.76,16.76,0,0,1,2.9-1.66,7.1,7.1,0,0,1,2.78-.58,4.76,4.76,0,0,1,3.29,1.06,3.91,3.91,0,0,1,1.18,3.07Z" transform="translate(-19 -21.54)"/><path class="cls-1" d="M513.77,175.12l-.49,2.16h-5.62L506,184.74c-.1.38-.18.81-.26,1.3a7.44,7.44,0,0,0-.12,1.16,2.1,2.1,0,0,0,.54,1.58,2.86,2.86,0,0,0,2,.51,5.72,5.72,0,0,0,1.4-.21,10.32,10.32,0,0,0,1.1-.32h.15l-.51,2.34a16.36,16.36,0,0,1-1.72.34,12.8,12.8,0,0,1-1.63.13,4.74,4.74,0,0,1-3.07-.88,3.33,3.33,0,0,1-1.09-2.77,7,7,0,0,1,.06-.92c.05-.3.11-.65.18-1l2-8.69h-1.83l.49-2.16h1.84l1.07-4.65h2.7l-1.07,4.65Z" transform="translate(-19 -21.54)"/><path class="cls-1" d="M525.1,182.75a37.88,37.88,0,0,0-4,.34,11.78,11.78,0,0,0-2.84.73,4,4,0,0,0-1.77,1.28,3.35,3.35,0,0,0-.61,2,1.88,1.88,0,0,0,.71,1.58,3.53,3.53,0,0,0,2.19.55,6.75,6.75,0,0,0,2.68-.58,14.32,14.32,0,0,0,2.55-1.41l1-4.52Zm-1.55,6.77c-.26.15-.62.38-1.06.66a12.09,12.09,0,0,1-1.37.73,9.67,9.67,0,0,1-1.65.55,8.67,8.67,0,0,1-2.09.23,4.42,4.42,0,0,1-3.12-1.12,3.82,3.82,0,0,1-1.2-2.93,5.84,5.84,0,0,1,.85-3.24,6.07,6.07,0,0,1,2.5-2.16,13.58,13.58,0,0,1,3.93-1.2,42.73,42.73,0,0,1,5.25-.45c.06-.27.12-.51.16-.7a2.56,2.56,0,0,0,.07-.62,2.14,2.14,0,0,0-.28-1.14,1.88,1.88,0,0,0-.78-.69,3.48,3.48,0,0,0-1.18-.36,9.75,9.75,0,0,0-1.48-.1,11,11,0,0,0-2.81.41,21.61,21.61,0,0,0-2.56.8h-.15l.54-2.72c.55-.15,1.35-.31,2.41-.49a18.32,18.32,0,0,1,3.06-.28,8.67,8.67,0,0,1,4.5.94,3.27,3.27,0,0,1,1.51,3,4.89,4.89,0,0,1-.07.83c0,.3-.09.57-.15.84l-2.55,11h-2.68l.4-1.72Z" transform="translate(-19 -21.54)"/><path class="cls-1" d="M540.46,172.43h-3.09l.65-2.82h3.08l-.64,2.82Zm-4.65,19.19a7.82,7.82,0,0,1-2.29,4.26,5.92,5.92,0,0,1-4.08,1.46,12.42,12.42,0,0,1-1.51-.12,10,10,0,0,1-1.53-.29l.56-2.49h.14a8.36,8.36,0,0,0,1,.37,4.73,4.73,0,0,0,3-.12,2.74,2.74,0,0,0,1.12-.93,5.72,5.72,0,0,0,.69-1.51c.18-.6.35-1.23.49-1.88l3-13.09h-3.38l.51-2.16h6.07l-3.82,16.5Z" transform="translate(-19 -21.54)"/><path class="cls-1" d="M557.14,180.82a13.07,13.07,0,0,1-.66,4.15,10.66,10.66,0,0,1-1.89,3.47,9.2,9.2,0,0,1-2.91,2.39,8.23,8.23,0,0,1-3.84.86,6,6,0,0,1-4.5-1.64,6.21,6.21,0,0,1-1.61-4.53,12.84,12.84,0,0,1,.66-4.12,11.08,11.08,0,0,1,1.9-3.5,9,9,0,0,1,3-2.35,8.28,8.28,0,0,1,3.81-.88,6.13,6.13,0,0,1,4.44,1.59,6,6,0,0,1,1.65,4.56Zm-4.42,6.08a9,9,0,0,0,1.2-2.66,12.36,12.36,0,0,0,.41-3.2,4.3,4.3,0,0,0-1-3,3.58,3.58,0,0,0-2.74-1,4.81,4.81,0,0,0-2.53.67,6.22,6.22,0,0,0-1.92,1.84,8.54,8.54,0,0,0-1.21,2.66,11.94,11.94,0,0,0-.42,3.17,4.36,4.36,0,0,0,1,3.05,3.56,3.56,0,0,0,2.76,1.07,4.91,4.91,0,0,0,2.52-.66,6,6,0,0,0,1.93-1.85Z" transform="translate(-19 -21.54)"/><path class="cls-1" d="M564.26,191.63a10.73,10.73,0,0,1-3.23-.45,13.43,13.43,0,0,1-2.38-1l.61-2.9h.15c.2.17.46.38.79.62a6.79,6.79,0,0,0,1.23.71,8.78,8.78,0,0,0,1.56.59,7,7,0,0,0,1.87.24,5.76,5.76,0,0,0,3.2-.76,2.52,2.52,0,0,0,1.15-2.24,1.33,1.33,0,0,0-.59-1.18,4.86,4.86,0,0,0-1.71-.67c-.38-.09-.83-.19-1.35-.29s-1.06-.23-1.61-.38a5.1,5.1,0,0,1-2.5-1.38,3.17,3.17,0,0,1-.82-2.2,4.62,4.62,0,0,1,.5-2.11,5.58,5.58,0,0,1,1.46-1.81,7.07,7.07,0,0,1,2.35-1.26,10,10,0,0,1,3.18-.49,11.85,11.85,0,0,1,2.89.36,8.88,8.88,0,0,1,2.35.9l-.58,2.77h-.14c-.16-.13-.39-.3-.71-.52a9.44,9.44,0,0,0-1.19-.66,8.21,8.21,0,0,0-1.45-.48,7,7,0,0,0-1.73-.21,5.12,5.12,0,0,0-2.93.77,2.44,2.44,0,0,0-1.13,2.1,1.53,1.53,0,0,0,.56,1.21,4,4,0,0,0,1.67.76c.48.11,1,.22,1.49.32s1,.21,1.49.33a5.17,5.17,0,0,1,2.53,1.3,3.06,3.06,0,0,1,.84,2.21,4.88,4.88,0,0,1-.52,2.18,5.35,5.35,0,0,1-1.53,1.84,7.32,7.32,0,0,1-2.49,1.28,10.73,10.73,0,0,1-3.28.47Z" transform="translate(-19 -21.54)"/><path class="cls-1" d="M401,191.63a10.73,10.73,0,0,1-3.23-.45,13.43,13.43,0,0,1-2.38-1l.61-2.9h.15c.2.17.46.38.79.62a6.79,6.79,0,0,0,1.23.71,8.78,8.78,0,0,0,1.56.59,7,7,0,0,0,1.87.24,5.76,5.76,0,0,0,3.2-.76,2.52,2.52,0,0,0,1.15-2.24,1.33,1.33,0,0,0-.59-1.18,4.86,4.86,0,0,0-1.71-.67c-.38-.09-.83-.19-1.35-.29s-1.06-.23-1.61-.38a5.1,5.1,0,0,1-2.5-1.38,3.17,3.17,0,0,1-.82-2.2,4.62,4.62,0,0,1,.5-2.11,5.58,5.58,0,0,1,1.46-1.81,7.07,7.07,0,0,1,2.35-1.26,10,10,0,0,1,3.18-.49,11.85,11.85,0,0,1,2.89.36,8.88,8.88,0,0,1,2.35.9l-.58,2.77h-.14c-.16-.13-.39-.3-.71-.52a9.44,9.44,0,0,0-1.19-.66,8.21,8.21,0,0,0-1.45-.48,7,7,0,0,0-1.73-.21,5.12,5.12,0,0,0-2.93.77,2.44,2.44,0,0,0-1.13,2.1,1.53,1.53,0,0,0,.56,1.21,4,4,0,0,0,1.67.76c.48.11,1,.22,1.49.32s1,.21,1.49.33a5.17,5.17,0,0,1,2.53,1.3,3.06,3.06,0,0,1,.84,2.21,4.88,4.88,0,0,1-.52,2.18,5.35,5.35,0,0,1-1.53,1.84,7.32,7.32,0,0,1-2.49,1.28,10.73,10.73,0,0,1-3.28.47Zm1.79,1.27-2.54,4.47h-2.11l1.45-4.47Z" transform="translate(-19 -21.54)"/><polygon class="cls-1" points="792.77 17.81 789.13 17.81 787.04 26.85 785.67 26.85 787.76 17.81 784.13 17.81 784.39 16.66 793.03 16.66 792.77 17.81 792.77 17.81"/><polygon class="cls-1" points="801.12 26.85 799.76 26.85 801.77 18.19 797.63 24.05 796.82 24.05 795.38 17.93 793.32 26.85 792.05 26.85 794.41 16.66 796.26 16.66 797.63 22.33 801.6 16.66 803.47 16.66 801.12 26.85 801.12 26.85"/><path class="cls-2" d="M84,152.09c-5.48,0-9.6-.73-12.25-2.18-1.33-.73-2.86-2-2.86-5.8,0-4.07.92-7.18,2.81-9.52a19.58,19.58,0,0,1,8.83-5.8A77.7,77.7,0,0,1,96,125.4c4.45-.6,9.41-1.14,15-1.67l-4.64,20.15a61,61,0,0,1-10.92,5.75A32,32,0,0,1,84,152.09Zm80.27-42.71L108.89,46.53a4.24,4.24,0,0,0-3.25-1.44,6.12,6.12,0,0,0-1.27.15l-1.08,0H103a200.4,200.4,0,0,0-27.12,2.25c-9.77,1.48-17.3,2.87-22.37,4.15a3.8,3.8,0,0,0-2.81,3l-6,29.92a3.81,3.81,0,0,0,3.74,4.57h3.74a3.81,3.81,0,0,0,1.33-.24c4-1.48,10-3.34,17.89-5.52a79,79,0,0,1,21.09-3.24c9.29,0,16.24,1,20.69,2.92,3.55,1.52,5.14,3.89,5.14,7.68a10.84,10.84,0,0,1-.16,2c-12.76.81-25,2-36.56,3.7-12.38,1.79-23.21,4.73-32.17,8.75-9.91,4.38-17.53,10.43-22.65,18S19,140,19,150.76c0,10.55,3.8,19.28,11.3,26,7.39,6.51,17,9.81,28.42,9.81.32,0,.85,0,1.53-.05l2,0c2.06,0,5.07,0,7.72.09,2.34,0,4.55.07,5.9.07,1.6,0,2.66,0,3.79-1l84.2-70.82a3.84,3.84,0,0,0,1.36-2.64,3.88,3.88,0,0,0-1-2.82Z" transform="translate(-19 -21.54)"/><path class="cls-3" d="M93.53,187.65c0,2,1.35,2.94,3.43,2.94h58.36c2.8,0,8.91-6.59,12.06-9l25.85-22.7c1.14-1,2.65-2.54,4.65-4.18.07-.06.15-.11.21-.17,3.27-3.21,4-2.88,6.3.22l.33.36c.73.8,1.52,1.64,2.24,2.5l9.95,11.14c1.39,1.8,3.3,4.7,6.09,4.7h45.61a2.73,2.73,0,0,0,2.46-2.94c0-1.54-10.29-12.33-12-14.51l-29.42-33.57c-1.69-1.65-3.31-1.56-4.89-.07l-.24.22-9.09,8.63c-1.48,1.85-2.22,1.88-3.74-.13l-8.41-8.14a3.36,3.36,0,0,0-5.23,0l-9.47,8.12c-1.15,1.65-2.39,1.7-3.75,0l-10.61-10.17-.29-.28a2.62,2.62,0,0,0-3.79.31c-.11.11-.24.21-.35.31-2.91,2.55-5.22,4.51-8.53,7.18-2.5,2-4.43,3.8-6.82,5.93L118.88,165c-.91.76-1,.68-1.92,1.5l-3.44,2.94c-2.36,2.11-4.38,4-6.82,5.93-1.89,1.52-13.17,10.63-13.17,12.33Z" transform="translate(-19 -21.54)"/><path class="cls-4" d="M306.16,36.53c0-2-1.35-2.94-3.43-2.94H244.37c-2.79,0-8.91,6.59-12.05,9l-21.6,20.42C201.8,70.56,204,72.67,197,64.32L187,53.18c-1.39-1.79-3.3-4.69-6.09-4.69H129.52a2.73,2.73,0,0,0-2.46,2.94c0,1.54,11.85,14.6,13.54,16.78l31.32,35.73c2.86,2.92,2.57,3.47,5.89.16L199.07,86c2.55-2.56,4.48-2.16,6.9-.07l17.35,19.55c2,2.37,1.85,2.26,4.15.24l78.69-69.22Z" transform="translate(-19 -21.54)"/></svg>